# xmcd
#
# Track frame offsets:
#	225
#	13235
#	28281
#	41762
#	51795
#	64528
#	77734
#	91476
#	111677
#	123335
#	133796
#	145400
#	155480
#	166042
#	175950
#
# Disc length: 2426 seconds
#
# Revision: 0
# Processed by: cddbd v1.4PL0 Copyright (c) Steve Scherf et al.
# Submitted via: EasyCDDAExtractor 5.0.5.1
#
DISCID=d609770f
DTITLE=ZLATE TRAMPSKE CASY - disk 1
DYEAR=1900
DGENRE=Country
TTITLE0=Pisen tulaka
TTITLE1=Bedna vod whisky
TTITLE2=Krinolina
TTITLE3=Nas Karel
TTITLE4=Zen je dal
TTITLE5=Tak uz mi ma holka mava
TTITLE6=General
TTITLE7=Maly velky muz
TTITLE8=Rodne udoli
TTITLE9=Zpoved
TTITLE10=Pravidelne v sobotu
TTITLE11=Prsi, jejej to prsi
TTITLE12=Stara pacificka
TTITLE13=Zlatokop Tom
TTITLE14=Pisen posledniho vagonu
EXTD=
EXTT0=
EXTT1=
EXTT2=
EXTT3=
EXTT4=
EXTT5=
EXTT6=
EXTT7=
EXTT8=
EXTT9=
EXTT10=
EXTT11=
EXTT12=
EXTT13=
EXTT14=
PLAYORDER=
